<svg width="24" height="24" viewBox="0 0 24 24" fill="none" xmlns="http://www.w3.org/2000/svg">
<foreignObject x="-13.7461" y="-12.7505" width="51.4961" height="49.5005"><div xmlns="http://www.w3.org/1999/xhtml" style="backdrop-filter:blur(8px);clip-path:url(#bgblur_0_625_13597_clip_path);height:100%;width:100%"></div></foreignObject><path data-figma-bg-blur-radius="16" d="M4.09519 12.1777C2.14818 9.57021 2.79719 5.65904 6.0422 4.35532C9.28721 3.0516 11.2342 5.65904 11.8832 6.96277C12.5322 5.65904 15.1282 3.0516 18.3732 4.35532C21.6183 5.65904 21.6183 9.57021 19.6712 12.1777C17.7242 14.7851 11.8832 20 11.8832 20C11.8832 20 6.0422 14.7851 4.09519 12.1777Z" fill="white" fill-opacity="0.2" stroke="#1F1F1F" stroke-width="1.5" stroke-linecap="round" stroke-linejoin="round"/>
<defs>
<clipPath id="bgblur_0_625_13597_clip_path" transform="translate(13.7461 12.7505)"><path d="M4.09519 12.1777C2.14818 9.57021 2.79719 5.65904 6.0422 4.35532C9.28721 3.0516 11.2342 5.65904 11.8832 6.96277C12.5322 5.65904 15.1282 3.0516 18.3732 4.35532C21.6183 5.65904 21.6183 9.57021 19.6712 12.1777C17.7242 14.7851 11.8832 20 11.8832 20C11.8832 20 6.0422 14.7851 4.09519 12.1777Z"/>
</clipPath></defs>
</svg>
