<svg width="40" height="40" viewBox="0 0 40 40" fill="none" xmlns="http://www.w3.org/2000/svg">
<rect width="40" height="40" rx="10" fill="#EEEEEE"/>
<path d="M18.6 18C18.6 17.6686 18.3314 17.4 18 17.4C17.6686 17.4 17.4 17.6686 17.4 18H18H18.6ZM17.4 26C17.4 26.3314 17.6686 26.6 18 26.6C18.3314 26.6 18.6 26.3314 18.6 26H18H17.4ZM22.6 18C22.6 17.6686 22.3314 17.4 22 17.4C21.6686 17.4 21.4 17.6686 21.4 18H22H22.6ZM21.4 26C21.4 26.3314 21.6686 26.6 22 26.6C22.3314 26.6 22.6 26.3314 22.6 26H22H21.4ZM15.092 28.782L15.3644 28.2474H15.3644L15.092 28.782ZM14.218 27.908L14.7526 27.6356H14.7526L14.218 27.908ZM25.782 27.908L25.2474 27.6356V27.6356L25.782 27.908ZM24.908 28.782L24.6356 28.2474V28.2474L24.908 28.782ZM13 14.4C12.6686 14.4 12.4 14.6686 12.4 15C12.4 15.3314 12.6686 15.6 13 15.6V15V14.4ZM27 15.6C27.3314 15.6 27.6 15.3314 27.6 15C27.6 14.6686 27.3314 14.4 27 14.4V15V15.6ZM15.9 15C15.9 15.3314 16.1686 15.6 16.5 15.6C16.8314 15.6 17.1 15.3314 17.1 15H16.5H15.9ZM22.9 15C22.9 15.3314 23.1686 15.6 23.5 15.6C23.8314 15.6 24.1 15.3314 24.1 15H23.5H22.9ZM18 18H17.4V26H18H18.6V18H18ZM22 18H21.4V26H22H22.6V18H22ZM26 15H25.4V25.8H26H26.6V15H26ZM22.8 29V28.4H17.2V29V29.6H22.8V29ZM14 15H13.4V25.8H14H14.6V15H14ZM17.2 29V28.4C16.63 28.4 16.2387 28.3995 15.9353 28.3747C15.6389 28.3505 15.4796 28.3061 15.3644 28.2474L15.092 28.782L14.8196 29.3166C15.1322 29.4759 15.4669 29.5405 15.8375 29.5708C16.2011 29.6005 16.6498 29.6 17.2 29.6V29ZM14 25.8H13.4C13.4 26.3502 13.3995 26.7989 13.4292 27.1625C13.4595 27.5331 13.5241 27.8678 13.6834 28.1804L14.218 27.908L14.7526 27.6356C14.6939 27.5204 14.6495 27.3611 14.6253 27.0647C14.6005 26.7613 14.6 26.37 14.6 25.8H14ZM15.092 28.782L15.3644 28.2474C15.101 28.1132 14.8868 27.899 14.7526 27.6356L14.218 27.908L13.6834 28.1804C13.9327 28.6696 14.3304 29.0673 14.8196 29.3166L15.092 28.782ZM26 25.8H25.4C25.4 26.37 25.3995 26.7613 25.3747 27.0647C25.3505 27.3611 25.3061 27.5204 25.2474 27.6356L25.782 27.908L26.3166 28.1804C26.4759 27.8678 26.5405 27.5331 26.5708 27.1625C26.6005 26.7989 26.6 26.3502 26.6 25.8H26ZM22.8 29V29.6C23.3502 29.6 23.7989 29.6005 24.1625 29.5708C24.5331 29.5405 24.8678 29.4759 25.1804 29.3166L24.908 28.782L24.6356 28.2474C24.5204 28.3061 24.3611 28.3505 24.0647 28.3747C23.7613 28.3995 23.37 28.4 22.8 28.4V29ZM25.782 27.908L25.2474 27.6356C25.1132 27.899 24.899 28.1132 24.6356 28.2474L24.908 28.782L25.1804 29.3166C25.6696 29.0673 26.0673 28.6696 26.3166 28.1804L25.782 27.908ZM13 15V15.6H14V15V14.4H13V15ZM14 15V15.6H26V15V14.4H14V15ZM26 15V15.6H27V15V14.4H26V15ZM16.5 14.2H17.1C17.1 12.8135 18.3466 11.6 20 11.6V11V10.4C17.7874 10.4 15.9 12.0518 15.9 14.2H16.5ZM20 11V11.6C21.6534 11.6 22.9 12.8135 22.9 14.2H23.5H24.1C24.1 12.0518 22.2126 10.4 20 10.4V11ZM16.5 14.2H15.9V15H16.5H17.1V14.2H16.5ZM23.5 14.2H22.9V15H23.5H24.1V14.2H23.5Z" fill="#EB001B"/>
</svg>
